<svg width="36" height="30" viewBox="0 0 36 30" fill="none" xmlns="http://www.w3.org/2000/svg">
<path d="M29.84 19.84C30.4533 18.2667 31.3867 15.9333 32.64 12.84L35.4 5.84C35.4533 5.73333 35.48 5.64 35.48 5.56C35.5067 5.48 35.4533 5.41333 35.32 5.36C35.1867 5.30666 35.0133 5.28 34.8 5.28H8C7.78667 5.28 7.57333 5.21333 7.36 5.08C7.17333 4.92 7.06667 4.73333 7.04 4.52L6.28 0.799998C6.22667 0.586665 6.10667 0.413331 5.92 0.279998C5.73333 0.119998 5.53333 0.0399985 5.32 0.0399985H1.28C1.06667 0.0399985 0.88 0.119998 0.72 0.279998C0.586667 0.439999 0.52 0.626666 0.52 0.839998V1.24C0.52 1.45333 0.586667 1.64 0.72 1.8C0.88 1.93333 1.06667 2 1.28 2H3.72C3.93333 2 4.13333 2.08 4.32 2.24C4.50667 2.4 4.61333 2.58666 4.64 2.8L9.08 24.52C9.10667 24.7333 9.06667 24.96 8.96 25.2C8.88 25.44 8.76 25.64 8.6 25.8C8.17333 26.28 7.96 26.8533 7.96 27.52C7.96 28.1867 8.2 28.76 8.68 29.24C9.18667 29.72 9.78667 29.96 10.48 29.96C11.1733 29.96 11.76 29.7067 12.24 29.2C12.7467 28.72 13 28.1467 13 27.48C13 27.1333 12.9467 26.8533 12.84 26.64C12.76 26.4 12.7467 26.2267 12.8 26.12C12.88 25.9867 13.0267 25.92 13.24 25.92H25.68C25.8933 25.92 26.0267 25.9867 26.08 26.12C26.16 26.2267 26.1467 26.4 26.04 26.64C25.96 26.8533 25.92 27.12 25.92 27.44C25.8933 28.1067 26.1333 28.6933 26.64 29.2C27.1467 29.7067 27.7333 29.96 28.4 29.96C29.0933 29.9867 29.68 29.76 30.16 29.28C30.6667 28.8 30.9333 28.2133 30.96 27.52C30.96 26.7467 30.6533 26.0933 30.04 25.56C29.5867 25.2133 29.36 24.88 29.36 24.56C29.36 24.4 29.28 24.2667 29.12 24.16C28.96 24.0533 28.7733 24 28.56 24H11.84C11.6267 24 11.4267 23.9333 11.24 23.8C11.0533 23.64 10.9333 23.4533 10.88 23.24L10.44 21.16C10.3867 20.9467 10.3867 20.7733 10.44 20.64C10.52 20.48 10.6133 20.4 10.72 20.4H28.96C29.2 20.4 29.3733 20.36 29.48 20.28C29.6133 20.2 29.7333 20.0533 29.84 19.84Z" fill="black"/>
</svg>