<!-- icon666.com - MILLIONS vector ICONS FREE --><svg viewBox="0 -76 512 512" xmlns="http://www.w3.org/2000/svg"><path d="m31 285c0 8.289062 6.710938 15 15 15h421c8.289062 0 15-6.710938 15-15 0-110.15625-80.613281-201.886719-185.289062-221.121094 2.683593-5.761718 4.289062-12.113281 4.289062-18.878906 0-24.8125-20.1875-45-45-45s-45 20.1875-45 45c0 6.765625 1.605469 13.117188 4.289062 18.878906-104.675781 19.234375-184.289062 110.964844-184.289062 221.121094zm210-240c0-8.277344 6.722656-15 15-15s15 6.722656 15 15-6.722656 15-15 15-15-6.722656-15-15zm0 0"></path><path d="m497 330h-482c-8.289062 0-15 6.710938-15 15s6.710938 15 15 15h482c8.289062 0 15-6.710938 15-15s-6.710938-15-15-15zm0 0"></path></svg>